<?xml version="1.0" encoding="utf-8"?>
<!-- Generator: Adobe Illustrator 26.0.1, SVG Export Plug-In . SVG Version: 6.00 Build 0)  -->
<svg version="1.1" id="Layer_1" xmlns="http://www.w3.org/2000/svg" xmlns:xlink="http://www.w3.org/1999/xlink" x="0px" y="0px"
	 viewBox="0 0 812.8 712.2" style="enable-background:new 0 0 812.8 712.2;" xml:space="preserve">
<style type="text/css">
	.st0{display:none;}
	.st1{display:inline;fill:#FFFFFF;}
</style>
<g id="white" class="st0">
	<path class="st1" d="M24.9,0.6H2.6C1.2,0.5,0,1.7,0,3.1l0,0v22.3C0,26.9,1.2,28,2.6,28l0,0h22.3c1.4,0,2.6-1.1,2.6-2.6l0,0V3.1
		C27.5,1.7,26.3,0.5,24.9,0.6C24.9,0.5,24.9,0.5,24.9,0.6z"/>
	<path class="st1" d="M165.1,38.5h-22.3c-1.4,0-2.6,1.1-2.6,2.6l0,0v22.2c0,1.4,1.2,2.6,2.6,2.6l0,0h22.3c1.4,0,2.6-1.2,2.6-2.6
		V41.1C167.7,39.7,166.6,38.6,165.1,38.5z"/>
	<path class="st1" d="M165.1,76.5h-22.3c-1.4,0-2.6,1.1-2.6,2.6l0,0v22.3c0,1.4,1.2,2.6,2.6,2.6h22.3c1.4,0,2.6-1.1,2.6-2.6l0,0
		V79.1C167.7,77.6,166.6,76.5,165.1,76.5z"/>
	<path class="st1" d="M211.9,0.6h-22.3c-1.4,0-2.6,1.2-2.6,2.6v22.3c0,1.4,1.2,2.6,2.6,2.6h22.3c1.4,0,2.6-1.2,2.6-2.6V3.1
		C214.5,1.7,213.3,0.6,211.9,0.6z"/>
	<path class="st1" d="M211.9,38.5h-22.3c-1.4,0-2.6,1.2-2.6,2.6v22.2c0,1.4,1.2,2.6,2.6,2.6h22.3c1.4,0,2.6-1.2,2.6-2.6V41.1
		C214.5,39.7,213.3,38.6,211.9,38.5z"/>
	<path class="st1" d="M211.9,76.5h-22.3c-1.4,0-2.6,1.2-2.6,2.6v22.3c0,1.4,1.1,2.6,2.6,2.6l0,0h22.3c1.4,0,2.6-1.1,2.6-2.6l0,0
		V79.1C214.5,77.6,213.3,76.5,211.9,76.5z"/>
	<path class="st1" d="M258.7,0.6h-22.3c-1.4,0-2.6,1.2-2.6,2.6v22.3c0,1.4,1.2,2.6,2.6,2.6h22.3c1.4,0,2.6-1.2,2.6-2.6V3.1
		C261.3,1.7,260.1,0.6,258.7,0.6z"/>
	<path class="st1" d="M258.7,38.5h-22.3c-1.4,0-2.6,1.2-2.6,2.6v22.2c0,1.4,1.2,2.6,2.6,2.6h22.3c1.4,0,2.6-1.2,2.6-2.6V41.1
		C261.2,39.7,260.1,38.6,258.7,38.5z"/>
	<path class="st1" d="M258.7,152.4h-22.3c-1.4,0-2.6,1.2-2.6,2.6l0,0l0,0v22.3c0,1.4,1.1,2.6,2.6,2.6l0,0h22.3
		c1.4,0,2.6-1.1,2.6-2.6l0,0V155C261.3,153.5,260.1,152.4,258.7,152.4C258.7,152.3,258.7,152.3,258.7,152.4z"/>
	<path class="st1" d="M305.4,114.4h-22.3c-1.4,0-2.6,1.2-2.6,2.6v22.3c0,1.4,1.1,2.6,2.6,2.6l0,0h22.3c1.4,0,2.6-1.1,2.6-2.6l0,0
		V117C308,115.6,306.9,114.4,305.4,114.4z"/>
	<path class="st1" d="M24.9,190.3H2.6c-1.4,0-2.6,1.1-2.6,2.6l0,0v22.3c0,1.4,1.2,2.6,2.6,2.6l0,0h22.3c1.4,0,2.6-1.2,2.6-2.6v-22.3
		C27.5,191.5,26.3,190.3,24.9,190.3z"/>
	<path class="st1" d="M165.1,228.2h-22.3c-1.4,0-2.6,1.1-2.6,2.6l0,0v22.3c0,1.4,1.2,2.6,2.6,2.6l0,0h22.3c1.4,0,2.6-1.2,2.6-2.6
		v-22.3C167.7,229.4,166.6,228.3,165.1,228.2z"/>
	<path class="st1" d="M165.1,266.2h-22.3c-1.4,0-2.6,1.1-2.6,2.6l0,0v22.3c0,1.4,1.2,2.6,2.6,2.6h22.3c1.4,0,2.6-1.1,2.6-2.6l0,0
		v-22.3C167.7,267.4,166.6,266.2,165.1,266.2z"/>
	<path class="st1" d="M211.9,190.3h-22.3c-1.4,0-2.6,1.2-2.6,2.6v22.3c0,1.4,1.2,2.6,2.6,2.6h22.3c1.4,0,2.6-1.2,2.6-2.6v-22.3
		C214.5,191.5,213.3,190.3,211.9,190.3z"/>
	<path class="st1" d="M211.9,228.2h-22.3c-1.4,0-2.6,1.2-2.6,2.6v22.3c0,1.4,1.2,2.6,2.6,2.6h22.3c1.4,0,2.6-1.2,2.6-2.6v-22.3
		C214.5,229.4,213.3,228.3,211.9,228.2z"/>
	<path class="st1" d="M211.9,266.2h-22.3c-1.4,0-2.6,1.2-2.6,2.6v22.3c0,1.4,1.1,2.6,2.6,2.6l0,0h22.3c1.4,0,2.6-1.1,2.6-2.6l0,0
		v-22.3C214.5,267.4,213.3,266.2,211.9,266.2z"/>
	<path class="st1" d="M258.7,190.3h-22.3c-1.4,0-2.6,1.2-2.6,2.6v22.3c0,1.4,1.2,2.6,2.6,2.6h22.3c1.4,0,2.6-1.2,2.6-2.6v-22.3
		C261.3,191.5,260.1,190.3,258.7,190.3z"/>
	<path class="st1" d="M258.7,228.2h-22.3c-1.4,0-2.6,1.2-2.6,2.6v22.3c0,1.4,1.2,2.6,2.6,2.6h22.3c1.4,0,2.6-1.2,2.6-2.6v-22.3
		C261.3,229.4,260.1,228.3,258.7,228.2z"/>
	<path class="st1" d="M258.7,342.1h-22.3c-1.4,0-2.6,1.2-2.6,2.6l0,0l0,0V367c0,1.4,1.1,2.6,2.6,2.6l0,0h22.3c1.4,0,2.6-1.1,2.6-2.6
		l0,0v-22.3C261.3,343.3,260.1,342.1,258.7,342.1L258.7,342.1z"/>
	<path class="st1" d="M305.4,304.1h-22.3c-1.4,0-2.6,1.2-2.6,2.6V329c0,1.4,1.1,2.6,2.6,2.6l0,0h22.3c1.4,0,2.6-1.1,2.6-2.6l0,0
		v-22.3C308,305.3,306.9,304.2,305.4,304.1z"/>
	<path class="st1" d="M420.8,382.6v22.3c0,1.4,1.2,2.6,2.6,2.6h22.3c1.4,0,2.6-1.1,2.6-2.6l0,0v-22.3c0-1.4-1.1-2.6-2.6-2.6l0,0
		h-22.3C422,380.1,420.8,381.2,420.8,382.6z"/>
	<path class="st1" d="M280.6,420.6v22.3c0,1.4,1.2,2.6,2.6,2.6h22.3c1.4,0,2.6-1.1,2.6-2.6l0,0v-22.3c0-1.4-1.1-2.6-2.6-2.6l0,0
		h-22.3C281.7,418,280.6,419.2,280.6,420.6z"/>
	<path class="st1" d="M280.6,458.5v22.3c0,1.4,1.1,2.6,2.6,2.6l0,0h22.3c1.4,0,2.6-1.2,2.6-2.6v-22.3c0-1.4-1.1-2.6-2.6-2.6l0,0
		h-22.3C281.7,456,280.6,457.1,280.6,458.5z"/>
	<path class="st1" d="M233.8,382.6v22.3c0,1.4,1.2,2.6,2.6,2.6h22.3c1.4,0,2.6-1.2,2.6-2.6v-22.3c0-1.4-1.2-2.6-2.6-2.6h-22.3
		C235,380.1,233.8,381.2,233.8,382.6z"/>
	<path class="st1" d="M233.8,420.6v22.3c0,1.4,1.2,2.6,2.6,2.6h22.3c1.4,0,2.6-1.2,2.6-2.6v-22.3c0-1.4-1.2-2.6-2.6-2.6h-22.3
		C235,418,233.8,419.2,233.8,420.6z"/>
	<path class="st1" d="M233.8,458.5v22.3c0,1.4,1.1,2.6,2.6,2.6l0,0h22.3c1.4,0,2.6-1.2,2.6-2.6l0,0v-22.3c0-1.4-1.2-2.6-2.6-2.6
		h-22.3C235,456,233.8,457.1,233.8,458.5z"/>
	<path class="st1" d="M187,382.6v22.3c0,1.4,1.2,2.6,2.6,2.6h22.3c1.4,0,2.6-1.2,2.6-2.6v-22.3c0-1.4-1.2-2.6-2.6-2.6h-22.3
		C188.2,380.1,187,381.2,187,382.6z"/>
	<path class="st1" d="M187,420.6v22.3c0,1.4,1.2,2.6,2.6,2.6h22.3c1.4,0,2.6-1.2,2.6-2.6v-22.3c0-1.4-1.2-2.6-2.6-2.6h-22.3
		C188.2,418,187,419.2,187,420.6z"/>
	<path class="st1" d="M187,534.5v22.3c0,1.4,1.1,2.6,2.6,2.6l0,0h22.3c1.4,0,2.6-1.2,2.6-2.6l0,0v-22.3l0,0c0-1.4-1.1-2.6-2.6-2.6
		l0,0h-22.3C188.2,531.8,187,533,187,534.5C187,534.4,187,534.4,187,534.5z"/>
	<path class="st1" d="M140.3,496.5v22.3c0,1.4,1.1,2.6,2.6,2.6l0,0h22.3c1.4,0,2.6-1.2,2.6-2.6l0,0v-22.3c0-1.4-1.2-2.6-2.6-2.6
		h-22.3C141.4,494,140.3,495.1,140.3,496.5z"/>
	<path class="st1" d="M24.9,570.9H2.6c-1.4,0-2.6,1.2-2.6,2.6c0,0,0,0,0,0.1v22.3c0,1.4,1.2,2.6,2.6,2.6l0,0h22.3
		c1.4,0,2.6-1.2,2.6-2.6v-22.3C27.5,572.1,26.3,570.9,24.9,570.9L24.9,570.9z"/>
	<path class="st1" d="M165.1,608.8h-22.3c-1.4,0-2.6,1.2-2.6,2.6v22.3c0,1.4,1.2,2.6,2.6,2.6l0,0h22.3c1.4,0,2.6-1.2,2.6-2.6v-22.3
		C167.7,610,166.6,608.9,165.1,608.8z"/>
	<path class="st1" d="M165.1,646.8h-22.3c-1.4,0-2.6,1.2-2.6,2.6v22.3c0,1.4,1.2,2.6,2.6,2.6h22.3c1.4,0,2.6-1.1,2.6-2.6l0,0v-22.3
		C167.7,648,166.6,646.8,165.1,646.8z"/>
	<path class="st1" d="M211.9,570.9h-22.3c-1.4,0-2.6,1.2-2.6,2.6v22.3c0,1.4,1.2,2.6,2.6,2.6l0,0h22.3c1.4,0,2.6-1.2,2.6-2.6v-22.2
		C214.5,572.1,213.4,570.9,211.9,570.9L211.9,570.9z"/>
	<path class="st1" d="M211.9,608.8h-22.3c-1.4,0-2.6,1.2-2.6,2.6v22.3c0,1.4,1.2,2.6,2.6,2.6l0,0h22.3c1.4,0,2.6-1.2,2.6-2.6v-22.3
		C214.5,610,213.3,608.9,211.9,608.8z"/>
	<path class="st1" d="M211.9,646.8h-22.3c-1.4,0-2.6,1.2-2.6,2.6v22.3c0,1.4,1.1,2.6,2.6,2.6l0,0h22.3c1.4,0,2.6-1.1,2.6-2.6l0,0
		v-22.3C214.5,648,213.3,646.8,211.9,646.8z"/>
	<path class="st1" d="M258.7,570.9h-22.3c-1.4,0-2.6,1.2-2.6,2.6v22.3c0,1.4,1.2,2.6,2.6,2.6l0,0h22.3c1.4,0,2.6-1.2,2.6-2.6v-22.2
		C261.3,572.1,260.1,570.9,258.7,570.9L258.7,570.9z"/>
	<path class="st1" d="M258.7,608.8h-22.3c-1.4,0-2.6,1.2-2.6,2.6v22.3c0,1.4,1.2,2.6,2.6,2.6l0,0h22.3c1.4,0,2.6-1.2,2.6-2.6v-22.3
		C261.3,610,260.1,608.9,258.7,608.8z"/>
	<path class="st1" d="M305.4,684.8h-22.3c-1.4,0-2.6,1.2-2.6,2.6v22.3c0,1.4,1.1,2.6,2.6,2.6l0,0h22.3c1.4,0,2.6-1.1,2.6-2.6l0,0
		v-22.3C308,685.9,306.9,684.8,305.4,684.8z"/>
	<path class="st1" d="M484.5,709.1v-22.3c0-1.4-1.2-2.6-2.6-2.6h-22.2c-1.4,0-2.6,1.1-2.6,2.6l0,0v22.3c0,1.4,1.1,2.6,2.6,2.6l0,0
		H482C483.4,711.6,484.5,710.5,484.5,709.1z"/>
	<path class="st1" d="M624.8,671.1v-22.3c0-1.4-1.2-2.6-2.6-2.6H600c-1.4,0-2.6,1.1-2.6,2.6l0,0v22.3c0,1.4,1.1,2.6,2.6,2.6l0,0
		h22.3C623.6,673.7,624.8,672.5,624.8,671.1z"/>
	<path class="st1" d="M624.8,633.2v-22.3c0-1.4-1.1-2.6-2.6-2.6l0,0h-22.3c-1.4,0-2.6,1.2-2.6,2.6v22.3c0,1.4,1.1,2.6,2.6,2.6l0,0
		h22.3C623.6,635.8,624.8,634.6,624.8,633.2z"/>
	<path class="st1" d="M671.6,709.1v-22.3c0-1.4-1.2-2.6-2.6-2.6h-22.3c-1.4,0-2.6,1.2-2.6,2.6l0,0v22.3c0,1.4,1.2,2.6,2.6,2.6H669
		C670.4,711.7,671.6,710.5,671.6,709.1z"/>
	<path class="st1" d="M671.6,671.1v-22.3c0-1.4-1.2-2.6-2.6-2.6h-22.3c-1.4,0-2.6,1.2-2.6,2.6l0,0v22.3c0,1.4,1.2,2.6,2.6,2.6H669
		C670.4,673.7,671.6,672.5,671.6,671.1z"/>
	<path class="st1" d="M671.6,633.2v-22.3c0-1.4-1.1-2.6-2.6-2.6l0,0h-22.3c-1.4,0-2.6,1.2-2.6,2.6l0,0v22.3c0,1.4,1.2,2.6,2.6,2.6
		H669C670.4,635.8,671.6,634.6,671.6,633.2z"/>
	<path class="st1" d="M718.3,709.1v-22.3c0-1.4-1.2-2.6-2.6-2.6h-22.2c-1.4,0-2.6,1.2-2.6,2.6l0,0v22.3c0,1.4,1.2,2.6,2.6,2.6h22.3
		C717.2,711.6,718.3,710.5,718.3,709.1z"/>
	<path class="st1" d="M718.3,671.1v-22.3c0-1.4-1.2-2.6-2.6-2.6h-22.2c-1.4,0-2.6,1.2-2.6,2.6l0,0v22.3c0,1.4,1.2,2.6,2.6,2.6h22.3
		C717.2,673.7,718.3,672.5,718.3,671.1z"/>
	<path class="st1" d="M718.3,557.3V535c0-1.4-1.1-2.6-2.6-2.6l0,0h-22.2c-1.4,0-2.6,1.2-2.6,2.6l0,0v22.3l0,0c0,1.4,1.2,2.6,2.6,2.6
		l0,0h22.3C717.2,559.8,718.3,558.7,718.3,557.3z"/>
	<path class="st1" d="M765.1,595.2V573c0-1.4-1.1-2.6-2.6-2.6l0,0h-22.3c-1.4,0-2.6,1.2-2.6,2.6l0,0v22.3c0,1.4,1.2,2.6,2.6,2.6
		h22.3C763.9,597.8,765.1,596.6,765.1,595.2z"/>
	<path class="st1" d="M484.5,519.3V497c0-1.4-1.2-2.6-2.6-2.6h-22.2c-1.4,0-2.6,1.1-2.6,2.6l0,0v22.3c0,1.4,1.1,2.6,2.6,2.6l0,0H482
		C483.4,521.9,484.5,520.7,484.5,519.3z"/>
	<path class="st1" d="M624.8,481.4v-22.3c0-1.4-1.2-2.6-2.6-2.6H600c-1.4,0-2.6,1.1-2.6,2.6l0,0v22.3c0,1.4,1.1,2.6,2.6,2.6l0,0
		h22.3C623.6,484,624.8,482.8,624.8,481.4z"/>
	<path class="st1" d="M624.8,443.4v-22.3c0-1.4-1.1-2.6-2.6-2.6l0,0h-22.3c-1.4,0-2.6,1.2-2.6,2.6v22.3c0,1.4,1.1,2.6,2.6,2.6l0,0
		h22.3C623.6,446,624.8,444.8,624.8,443.4z"/>
	<path class="st1" d="M671.6,519.3V497c0-1.4-1.2-2.6-2.6-2.6h-22.3c-1.4,0-2.6,1.2-2.6,2.6l0,0v22.3c0,1.4,1.2,2.6,2.6,2.6H669
		C670.4,521.9,671.6,520.7,671.6,519.3z"/>
	<path class="st1" d="M671.6,481.4v-22.3c0-1.4-1.2-2.6-2.6-2.6h-22.3c-1.4,0-2.6,1.2-2.6,2.6l0,0v22.3c0,1.4,1.2,2.6,2.6,2.6H669
		C670.4,484,671.6,482.8,671.6,481.4z"/>
	<path class="st1" d="M671.6,443.4v-22.3c0-1.4-1.1-2.6-2.6-2.6l0,0h-22.3c-1.4,0-2.6,1.2-2.6,2.6l0,0v22.3c0,1.4,1.2,2.6,2.6,2.6
		H669C670.4,446,671.6,444.8,671.6,443.4z"/>
	<path class="st1" d="M718.3,519.3V497c0-1.4-1.2-2.6-2.6-2.6h-22.2c-1.4,0-2.6,1.2-2.6,2.6l0,0v22.3c0,1.4,1.2,2.6,2.6,2.6h22.3
		C717.2,521.9,718.3,520.7,718.3,519.3z"/>
	<path class="st1" d="M718.3,481.4v-22.3c0-1.4-1.2-2.6-2.6-2.6h-22.2c-1.4,0-2.6,1.2-2.6,2.6l0,0v22.3c0,1.4,1.2,2.6,2.6,2.6h22.3
		C717.2,483.9,718.3,482.8,718.3,481.4z"/>
	<path class="st1" d="M718.3,367.5v-22.3c0-1.4-1.1-2.6-2.6-2.6l0,0h-22.2c-1.4,0-2.6,1.2-2.6,2.6l0,0v22.3l0,0
		c0,1.4,1.2,2.6,2.6,2.6l0,0h22.3C717.2,370.1,718.3,369,718.3,367.5z"/>
	<path class="st1" d="M765.1,405.5v-22.3c0-1.4-1.1-2.6-2.6-2.6l0,0h-22.3c-1.4,0-2.6,1.2-2.6,2.6l0,0v22.3c0,1.4,1.2,2.6,2.6,2.6
		h22.3C763.9,408,765.1,406.9,765.1,405.5z"/>
	<path class="st1" d="M740.2,294.2h22.3c1.4,0,2.6-1.1,2.6-2.6l0,0v-22.3c0-1.4-1.2-2.6-2.6-2.6l0,0h-22.3c-1.4,0-2.6,1.2-2.6,2.6
		v22.3C737.6,293,738.8,294.2,740.2,294.2z"/>
	<path class="st1" d="M740.2,256.3h22.3c1.4,0,2.6-1.1,2.6-2.6l0,0v-22.3c0-1.4-1.2-2.6-2.6-2.6h-22.3c-1.4,0-2.6,1.1-2.6,2.6l0,0
		v22.3C737.6,255.1,738.8,256.3,740.2,256.3z"/>
	<path class="st1" d="M693.5,332.2h22.3c1.4,0,2.6-1.2,2.6-2.6v-22.3c0-1.4-1.2-2.6-2.6-2.6l0,0h-22.3c-1.4,0-2.6,1.2-2.6,2.6v22.3
		C690.9,331,692.1,332.2,693.5,332.2z"/>
	<path class="st1" d="M693.5,294.2h22.3c1.4,0,2.6-1.2,2.6-2.6v-22.3c0-1.4-1.2-2.6-2.6-2.6l0,0h-22.3c-1.4,0-2.6,1.2-2.6,2.6v22.3
		C690.9,293,692.1,294.2,693.5,294.2z"/>
	<path class="st1" d="M693.5,256.3h22.3c1.4,0,2.6-1.2,2.6-2.6v-22.3c0-1.4-1.1-2.6-2.6-2.6l0,0h-22.3c-1.4,0-2.6,1.1-2.6,2.6l0,0
		v22.3C690.9,255.1,692.1,256.3,693.5,256.3z"/>
	<path class="st1" d="M646.7,332.2H669c1.4,0,2.6-1.2,2.6-2.6v-22.3c0-1.4-1.2-2.6-2.6-2.6l0,0h-22.3c-1.4,0-2.6,1.2-2.6,2.6v22.3
		C644.1,331,645.3,332.2,646.7,332.2z"/>
	<path class="st1" d="M646.7,294.2H669c1.4,0,2.6-1.2,2.6-2.6v-22.3c0-1.4-1.2-2.6-2.6-2.6l0,0h-22.3c-1.4,0-2.6,1.2-2.6,2.6v22.3
		C644.1,293,645.3,294.2,646.7,294.2z"/>
	<path class="st1" d="M646.7,180.4H669c1.4,0,2.6-1.2,2.6-2.6l0,0l0,0v-22.2c0-1.4-1.1-2.6-2.6-2.6l0,0h-22.3
		c-1.4,0-2.6,1.1-2.6,2.6l0,0v22.3C644.1,179.2,645.3,180.4,646.7,180.4z"/>
	<path class="st1" d="M600,218.3h22.3c1.4,0,2.6-1.2,2.6-2.6v-22.3c0-1.4-1.1-2.6-2.6-2.6l0,0H600c-1.4,0-2.6,1.1-2.6,2.6l0,0v22.3
		C597.4,217.1,598.5,218.3,600,218.3z"/>
	<path class="st1" d="M484.5,138.7v-22.3c0-1.4-1.2-2.6-2.6-2.6h-22.2c-1.4,0-2.6,1.1-2.6,2.6l0,0v22.3c0,1.4,1.1,2.6,2.6,2.6l0,0
		H482C483.4,141.3,484.5,140.1,484.5,138.7z"/>
	<path class="st1" d="M624.8,100.8V78.5c0-1.4-1.2-2.6-2.6-2.6H600c-1.4,0-2.6,1.1-2.6,2.6l0,0v22.3c0,1.4,1.1,2.6,2.6,2.6l0,0h22.3
		C623.6,103.4,624.8,102.2,624.8,100.8z"/>
	<path class="st1" d="M624.8,62.8V40.5c0-1.4-1.1-2.6-2.6-2.6l0,0h-22.3c-1.4,0-2.6,1.2-2.6,2.6v22.3c0,1.4,1.1,2.6,2.6,2.6l0,0
		h22.3C623.6,65.4,624.8,64.2,624.8,62.8z"/>
	<path class="st1" d="M671.6,138.7v-22.3c0-1.4-1.2-2.6-2.6-2.6h-22.3c-1.4,0-2.6,1.2-2.6,2.6l0,0v22.3c0,1.4,1.2,2.6,2.6,2.6H669
		C670.4,141.3,671.6,140.1,671.6,138.7z"/>
	<path class="st1" d="M671.6,100.8V78.5c0-1.4-1.2-2.6-2.6-2.6h-22.3c-1.4,0-2.6,1.2-2.6,2.6l0,0v22.3c0,1.4,1.2,2.6,2.6,2.6H669
		C670.4,103.4,671.6,102.2,671.6,100.8z"/>
	<path class="st1" d="M671.6,62.8V40.5c0-1.4-1.1-2.6-2.6-2.6l0,0h-22.3c-1.4,0-2.6,1.2-2.6,2.6l0,0v22.3c0,1.4,1.2,2.6,2.6,2.6H669
		C670.4,65.4,671.6,64.2,671.6,62.8z"/>
	<path class="st1" d="M718.3,138.7v-22.3c0-1.4-1.2-2.6-2.6-2.6h-22.2c-1.4,0-2.6,1.2-2.6,2.6l0,0v22.3c0,1.4,1.2,2.6,2.6,2.6h22.3
		C717.2,141.3,718.3,140.1,718.3,138.7z"/>
	<path class="st1" d="M718.3,100.8V78.5c0-1.4-1.2-2.6-2.6-2.6h-22.2c-1.4,0-2.6,1.2-2.6,2.6l0,0v22.3c0,1.4,1.2,2.6,2.6,2.6h22.3
		C717.2,103.3,718.3,102.2,718.3,100.8z"/>
	<path class="st1" d="M765.1,24.9V2.6c0-1.4-1.1-2.6-2.6-2.6l0,0h-22.3c-1.4,0-2.6,1.2-2.6,2.6l0,0v22.3c0,1.4,1.2,2.6,2.6,2.6h22.3
		C763.9,27.4,765.1,26.3,765.1,24.9z"/>
</g>
<g id="accent">
	<image style="overflow:visible;" width="885" height="786" xlink:href="8550F9F5.png"  transform="matrix(1 0 0 1 -36 -36.8)">
	</image>
</g>
<g id="neutral">
	<image style="overflow:visible;" width="884" height="786" xlink:href="8550F9F6.png"  transform="matrix(1 0 0 1 -36 -36.8)">
	</image>
</g>
</svg>
