<svg id="Layer_1" data-name="Layer 1" xmlns="http://www.w3.org/2000/svg" viewBox="0 0 672.58 678.66"><defs><style>.cls-1{fill:#fff;}.cls-2{fill:#e6e6e6;}.cls-3{fill:#f9a826;}.cls-4{fill:#2f2e41;}.cls-5{fill:#ffb6b6;}.cls-6{fill:#3f3d56;}.cls-7{fill:#231f20;}.cls-7,.cls-8{stroke:#000;stroke-miterlimit:10;stroke-width:3px;}.cls-8{fill:none;}</style></defs><path class="cls-1" d="M27.85,0H5.59A2.59,2.59,0,0,0,3,2.6V24.87a2.59,2.59,0,0,0,2.59,2.59H27.85a2.61,2.61,0,0,0,2.6-2.59V2.6A2.61,2.61,0,0,0,27.85,0Z" transform="translate(-2.99)"/><path class="cls-2" d="M27.85,38H5.59A2.59,2.59,0,0,0,3,40.55V62.82a2.59,2.59,0,0,0,2.59,2.59H27.85a2.61,2.61,0,0,0,2.6-2.59V40.55A2.61,2.61,0,0,0,27.85,38Z" transform="translate(-2.99)"/><path class="cls-2" d="M27.85,75.9H5.59A2.59,2.59,0,0,0,3,78.5v22.26a2.59,2.59,0,0,0,2.59,2.6H27.85a2.6,2.6,0,0,0,2.6-2.6V78.5A2.61,2.61,0,0,0,27.85,75.9Z" transform="translate(-2.99)"/><path class="cls-2" d="M30.41,116a2.62,2.62,0,0,0-2.56-2.14H5.59a2.59,2.59,0,0,0-2.6,2.6v22.26a2.59,2.59,0,0,0,2.59,2.6H27.85a2.6,2.6,0,0,0,2.6-2.6V116.45A2.38,2.38,0,0,0,30.41,116Z" transform="translate(-2.99)"/><path class="cls-2" d="M28.86,152a2.71,2.71,0,0,0-1-.2H5.59A2.59,2.59,0,0,0,3,154.39H3v22.26a2.59,2.59,0,0,0,2.57,2.6H27.85a2.6,2.6,0,0,0,2.6-2.6V154.4A2.61,2.61,0,0,0,28.86,152Z" transform="translate(-2.99)"/><path class="cls-2" d="M74.61,0H52.35a2.59,2.59,0,0,0-2.6,2.6V24.87a2.59,2.59,0,0,0,2.59,2.59H74.61a2.61,2.61,0,0,0,2.6-2.59V2.6A2.61,2.61,0,0,0,74.61,0Z" transform="translate(-2.99)"/><path class="cls-3" d="M74.61,38H52.35a2.59,2.59,0,0,0-2.6,2.6V62.82a2.59,2.59,0,0,0,2.59,2.59H74.61a2.61,2.61,0,0,0,2.6-2.59V40.55A2.61,2.61,0,0,0,74.61,38Z" transform="translate(-2.99)"/><path class="cls-3" d="M74.61,75.9H52.35a2.59,2.59,0,0,0-2.6,2.6v22.26a2.59,2.59,0,0,0,2.59,2.6H74.61a2.6,2.6,0,0,0,2.6-2.6V78.5A2.61,2.61,0,0,0,74.61,75.9Z" transform="translate(-2.99)"/><path class="cls-3" d="M74.61,113.85H52.35a2.59,2.59,0,0,0-2.46,1.78,2.52,2.52,0,0,0-.14.82v22.26a2.59,2.59,0,0,0,2.59,2.6H74.61a2.6,2.6,0,0,0,2.6-2.6V116.45A2.61,2.61,0,0,0,74.61,113.85Z" transform="translate(-2.99)"/><path class="cls-2" d="M74.61,151.8H52.35a2.59,2.59,0,0,0-2.6,2.59h0v22.26a2.59,2.59,0,0,0,2.59,2.6H74.61a2.6,2.6,0,0,0,2.6-2.6V154.4A2.6,2.6,0,0,0,74.61,151.8Z" transform="translate(-2.99)"/><path class="cls-3" d="M121.37,0H99.11a2.59,2.59,0,0,0-2.6,2.6V24.87a2.59,2.59,0,0,0,2.59,2.59h22.27a2.61,2.61,0,0,0,2.6-2.59V2.6A2.61,2.61,0,0,0,121.37,0Z" transform="translate(-2.99)"/><path class="cls-3" d="M121.37,38H99.11a2.59,2.59,0,0,0-2.6,2.6V62.82a2.59,2.59,0,0,0,2.59,2.59h22.27a2.61,2.61,0,0,0,2.6-2.59V40.55A2.61,2.61,0,0,0,121.37,38Z" transform="translate(-2.99)"/><path class="cls-2" d="M121.37,75.9H99.11a2.59,2.59,0,0,0-2.6,2.6v22.26a2.59,2.59,0,0,0,2.59,2.6h22.27a2.6,2.6,0,0,0,2.6-2.6V78.5A2.61,2.61,0,0,0,121.37,75.9Z" transform="translate(-2.99)"/><path class="cls-3" d="M121.37,113.85H99.11a2.59,2.59,0,0,0-2.6,2.6v22.26a2.59,2.59,0,0,0,2.59,2.6h22.27a2.6,2.6,0,0,0,2.6-2.6V116.45A2.61,2.61,0,0,0,121.37,113.85Z" transform="translate(-2.99)"/><path class="cls-3" d="M121.37,151.8H99.11a2.59,2.59,0,0,0-2.6,2.59h0v22.26a2.59,2.59,0,0,0,2.59,2.6h22.27a2.6,2.6,0,0,0,2.6-2.6V154.4A2.6,2.6,0,0,0,121.37,151.8Z" transform="translate(-2.99)"/><path class="cls-3" d="M168.13,0H145.87a2.59,2.59,0,0,0-2.6,2.6V24.87a2.59,2.59,0,0,0,2.59,2.59h22.27a2.61,2.61,0,0,0,2.6-2.59V2.6A2.61,2.61,0,0,0,168.13,0Z" transform="translate(-2.99)"/><path class="cls-1" d="M168.13,38H145.87a2.59,2.59,0,0,0-2.6,2.6V62.82a2.59,2.59,0,0,0,2.59,2.59h22.27a2.61,2.61,0,0,0,2.6-2.59V40.55A2.61,2.61,0,0,0,168.13,38Z" transform="translate(-2.99)"/><path class="cls-1" d="M168.13,75.9H145.87a2.59,2.59,0,0,0-2.6,2.6v22.26a2.59,2.59,0,0,0,2.59,2.6h22.27a2.6,2.6,0,0,0,2.6-2.6V78.5A2.61,2.61,0,0,0,168.13,75.9Z" transform="translate(-2.99)"/><path class="cls-2" d="M168.13,113.85H145.87a2.59,2.59,0,0,0-2.6,2.6v22.26a2.59,2.59,0,0,0,2.59,2.6h22.27a2.6,2.6,0,0,0,2.6-2.6V116.45A2.61,2.61,0,0,0,168.13,113.85Z" transform="translate(-2.99)"/><path class="cls-3" d="M168.13,151.8H145.87a2.59,2.59,0,0,0-2.6,2.59h0v22.26a2.59,2.59,0,0,0,2.59,2.6h22.27a2.6,2.6,0,0,0,2.6-2.6V154.4A2.6,2.6,0,0,0,168.13,151.8Z" transform="translate(-2.99)"/><path class="cls-1" d="M214.89,0H192.62A2.6,2.6,0,0,0,190,2.6V24.87a2.59,2.59,0,0,0,2.59,2.59h22.27a2.61,2.61,0,0,0,2.6-2.59V2.6A2.61,2.61,0,0,0,214.89,0Z" transform="translate(-2.99)"/><path class="cls-1" d="M214.89,38H192.62a2.6,2.6,0,0,0-2.59,2.6V62.82a2.59,2.59,0,0,0,2.59,2.59h22.27a2.61,2.61,0,0,0,2.6-2.59V40.55A2.61,2.61,0,0,0,214.89,38Z" transform="translate(-2.99)"/><path class="cls-1" d="M214.89,75.9H192.62A2.6,2.6,0,0,0,190,78.5v22.26a2.58,2.58,0,0,0,2.58,2.6h22.28a2.6,2.6,0,0,0,2.6-2.6V78.5A2.61,2.61,0,0,0,214.89,75.9Z" transform="translate(-2.99)"/><path class="cls-3" d="M214.89,113.85H192.62a2.6,2.6,0,0,0-2.59,2.6v22.26a2.58,2.58,0,0,0,2.58,2.6h22.28a2.6,2.6,0,0,0,2.6-2.6V116.45A2.61,2.61,0,0,0,214.89,113.85Z" transform="translate(-2.99)"/><path class="cls-2" d="M214.89,151.8H192.62a2.59,2.59,0,0,0-2.59,2.6h0v22.26a2.58,2.58,0,0,0,2.58,2.6h22.28a2.6,2.6,0,0,0,2.6-2.6V154.4A2.6,2.6,0,0,0,214.89,151.8Z" transform="translate(-2.99)"/><path class="cls-1" d="M261.65,0H239.38a2.6,2.6,0,0,0-2.59,2.6V24.87a2.59,2.59,0,0,0,2.59,2.59h22.27a2.61,2.61,0,0,0,2.6-2.59V2.6A2.61,2.61,0,0,0,261.65,0Z" transform="translate(-2.99)"/><path class="cls-1" d="M261.65,38H239.38a2.6,2.6,0,0,0-2.59,2.6V62.82a2.59,2.59,0,0,0,2.59,2.59h22.27a2.61,2.61,0,0,0,2.6-2.59V40.55A2.61,2.61,0,0,0,261.65,38Z" transform="translate(-2.99)"/><path class="cls-3" d="M261.65,75.9H239.38a2.6,2.6,0,0,0-2.59,2.6v22.26a2.58,2.58,0,0,0,2.58,2.6h22.28a2.6,2.6,0,0,0,2.6-2.6V78.5A2.61,2.61,0,0,0,261.65,75.9Z" transform="translate(-2.99)"/><path class="cls-2" d="M261.65,113.85H239.38a2.6,2.6,0,0,0-2.59,2.6v22.26a2.58,2.58,0,0,0,2.58,2.6h22.28a2.6,2.6,0,0,0,2.6-2.6V116.45A2.61,2.61,0,0,0,261.65,113.85Z" transform="translate(-2.99)"/><path class="cls-1" d="M261.65,151.8H239.38a2.59,2.59,0,0,0-2.59,2.6h0v22.26a2.58,2.58,0,0,0,2.58,2.6h22.28a2.6,2.6,0,0,0,2.6-2.6V154.4A2.6,2.6,0,0,0,261.65,151.8Z" transform="translate(-2.99)"/><path class="cls-3" d="M308.41,0H286.14a2.6,2.6,0,0,0-2.59,2.6V24.87a2.59,2.59,0,0,0,2.59,2.59h22.27a2.61,2.61,0,0,0,2.6-2.59V2.6A2.61,2.61,0,0,0,308.41,0Z" transform="translate(-2.99)"/><path class="cls-3" d="M308.41,38H286.14a2.6,2.6,0,0,0-2.59,2.6V62.82a2.59,2.59,0,0,0,2.59,2.59h22.27a2.61,2.61,0,0,0,2.6-2.59V40.55A2.61,2.61,0,0,0,308.41,38Z" transform="translate(-2.99)"/><path class="cls-2" d="M308.41,75.9H286.14a2.6,2.6,0,0,0-2.59,2.6v22.26a2.58,2.58,0,0,0,2.58,2.6h22.28a2.6,2.6,0,0,0,2.6-2.6V78.5A2.61,2.61,0,0,0,308.41,75.9Z" transform="translate(-2.99)"/><path class="cls-1" d="M308.41,113.85H286.14a2.6,2.6,0,0,0-2.59,2.6v22.26a2.58,2.58,0,0,0,2.58,2.6h22.28a2.6,2.6,0,0,0,2.6-2.6V116.45A2.61,2.61,0,0,0,308.41,113.85Z" transform="translate(-2.99)"/><path class="cls-3" d="M308.41,151.8H286.14a2.59,2.59,0,0,0-2.59,2.6h0v22.26a2.58,2.58,0,0,0,2.58,2.6h22.28a2.6,2.6,0,0,0,2.6-2.6V154.4A2.6,2.6,0,0,0,308.41,151.8Z" transform="translate(-2.99)"/><path class="cls-3" d="M355.17,0H332.9a2.6,2.6,0,0,0-2.59,2.6V24.87a2.59,2.59,0,0,0,2.59,2.59h22.27a2.61,2.61,0,0,0,2.6-2.59V2.6A2.61,2.61,0,0,0,355.17,0Z" transform="translate(-2.99)"/><path class="cls-3" d="M355.17,38H332.9a2.6,2.6,0,0,0-2.59,2.6V62.82a2.59,2.59,0,0,0,2.59,2.59h22.27a2.61,2.61,0,0,0,2.6-2.59V40.55A2.61,2.61,0,0,0,355.17,38Z" transform="translate(-2.99)"/><path class="cls-2" d="M355.17,75.9H332.9a2.6,2.6,0,0,0-2.59,2.6v22.26a2.58,2.58,0,0,0,2.58,2.6h22.28a2.6,2.6,0,0,0,2.6-2.6V78.5A2.61,2.61,0,0,0,355.17,75.9Z" transform="translate(-2.99)"/><path class="cls-3" d="M355.17,113.85H332.9a2.6,2.6,0,0,0-2.59,2.6v22.26a2.58,2.58,0,0,0,2.58,2.6h22.28a2.6,2.6,0,0,0,2.6-2.6V116.45A2.61,2.61,0,0,0,355.17,113.85Z" transform="translate(-2.99)"/><path class="cls-3" d="M355.17,151.8H332.9a2.59,2.59,0,0,0-2.59,2.6h0v22.26a2.58,2.58,0,0,0,2.58,2.6h22.28a2.6,2.6,0,0,0,2.6-2.6V154.4A2.6,2.6,0,0,0,355.17,151.8Z" transform="translate(-2.99)"/><path class="cls-2" d="M401.93,0H379.66a2.6,2.6,0,0,0-2.59,2.6V24.87a2.59,2.59,0,0,0,2.59,2.59h22.27a2.61,2.61,0,0,0,2.6-2.59V2.6A2.61,2.61,0,0,0,401.93,0Z" transform="translate(-2.99)"/><path class="cls-3" d="M401.93,38H379.66a2.6,2.6,0,0,0-2.59,2.6V62.82a2.59,2.59,0,0,0,2.59,2.59h22.27a2.61,2.61,0,0,0,2.6-2.59V40.55A2.61,2.61,0,0,0,401.93,38Z" transform="translate(-2.99)"/><path class="cls-3" d="M401.93,75.9H379.66a2.6,2.6,0,0,0-2.59,2.6v22.26a2.58,2.58,0,0,0,2.58,2.6h22.28a2.6,2.6,0,0,0,2.6-2.6V78.5A2.61,2.61,0,0,0,401.93,75.9Z" transform="translate(-2.99)"/><path class="cls-3" d="M401.93,113.85H379.66a2.6,2.6,0,0,0-2.59,2.6v22.26a2.58,2.58,0,0,0,2.58,2.6h22.28a2.6,2.6,0,0,0,2.6-2.6V116.45A2.61,2.61,0,0,0,401.93,113.85Z" transform="translate(-2.99)"/><path class="cls-2" d="M401.93,151.8H379.66a2.59,2.59,0,0,0-2.59,2.6h0v22.26a2.58,2.58,0,0,0,2.58,2.6h22.28a2.6,2.6,0,0,0,2.6-2.6V154.4A2.6,2.6,0,0,0,401.93,151.8Z" transform="translate(-2.99)"/><path class="cls-2" d="M448.69,0H426.42a2.6,2.6,0,0,0-2.59,2.6V24.87a2.59,2.59,0,0,0,2.59,2.59h22.27a2.61,2.61,0,0,0,2.6-2.59V2.6A2.61,2.61,0,0,0,448.69,0Z" transform="translate(-2.99)"/><path class="cls-2" d="M448.69,38H426.42a2.6,2.6,0,0,0-2.59,2.6V62.82a2.59,2.59,0,0,0,2.59,2.59h22.27a2.61,2.61,0,0,0,2.6-2.59V40.55A2.61,2.61,0,0,0,448.69,38Z" transform="translate(-2.99)"/><path class="cls-3" d="M448.69,75.9H426.42a2.6,2.6,0,0,0-2.59,2.6v22.26a2.58,2.58,0,0,0,2.58,2.6h22.28a2.6,2.6,0,0,0,2.6-2.6V78.5A2.61,2.61,0,0,0,448.69,75.9Z" transform="translate(-2.99)"/><path class="cls-2" d="M448.69,113.85H426.42a2.6,2.6,0,0,0-2.59,2.6v22.26a2.58,2.58,0,0,0,2.58,2.6h22.28a2.6,2.6,0,0,0,2.6-2.6V116.45A2.61,2.61,0,0,0,448.69,113.85Z" transform="translate(-2.99)"/><path class="cls-2" d="M448.69,151.8H426.42a2.59,2.59,0,0,0-2.59,2.6h0v22.26a2.58,2.58,0,0,0,2.58,2.6h22.28a2.6,2.6,0,0,0,2.6-2.6V154.4A2.6,2.6,0,0,0,448.69,151.8Z" transform="translate(-2.99)"/><path class="cls-1" d="M650.71,425.06,673,425a2.6,2.6,0,0,0,2.6-2.6l0-22.27a2.58,2.58,0,0,0-2.59-2.59h0l-22.26,0a2.61,2.61,0,0,0-2.6,2.6l0,22.27A2.6,2.6,0,0,0,650.71,425.06Z" transform="translate(-2.99)"/><path class="cls-2" d="M650.66,387.11l22.26,0a2.6,2.6,0,0,0,2.59-2.6l0-22.27a2.6,2.6,0,0,0-2.6-2.59h0l-22.26,0a2.59,2.59,0,0,0-2.59,2.6l0,22.27A2.61,2.61,0,0,0,650.66,387.11Z" transform="translate(-2.99)"/><path class="cls-2" d="M650.6,349.16l22.26,0a2.59,2.59,0,0,0,2.59-2.6l0-22.26a2.59,2.59,0,0,0-2.59-2.6h0l-22.26,0a2.61,2.61,0,0,0-2.6,2.61l0,22.26A2.61,2.61,0,0,0,650.6,349.16Z" transform="translate(-2.99)"/><path class="cls-2" d="M648,309.08a2.61,2.61,0,0,0,2.56,2.13l22.26,0a2.6,2.6,0,0,0,2.6-2.6l0-22.26a2.59,2.59,0,0,0-2.59-2.6h0l-22.26,0a2.62,2.62,0,0,0-2.6,2.61l0,22.26A2.38,2.38,0,0,0,648,309.08Z" transform="translate(-2.99)"/><path class="cls-2" d="M649.47,273.06a2.58,2.58,0,0,0,1,.2l22.26,0a2.59,2.59,0,0,0,2.59-2.59h0l0-22.26a2.59,2.59,0,0,0-2.58-2.6h0l-22.26,0a2.61,2.61,0,0,0-2.59,2.61l0,22.26A2.61,2.61,0,0,0,649.47,273.06Z" transform="translate(-2.99)"/><path class="cls-2" d="M604,425.13l22.26,0a2.6,2.6,0,0,0,2.6-2.6l0-22.27a2.58,2.58,0,0,0-2.59-2.59h0l-22.26,0a2.61,2.61,0,0,0-2.6,2.6l0,22.27A2.6,2.6,0,0,0,604,425.13Z" transform="translate(-2.99)"/><path class="cls-3" d="M603.9,387.18l22.26,0a2.6,2.6,0,0,0,2.59-2.6l0-22.27a2.6,2.6,0,0,0-2.6-2.59h0l-22.26,0a2.59,2.59,0,0,0-2.59,2.6l0,22.27A2.61,2.61,0,0,0,603.9,387.18Z" transform="translate(-2.99)"/><path class="cls-3" d="M603.84,349.23l22.26,0a2.59,2.59,0,0,0,2.59-2.6l0-22.26a2.59,2.59,0,0,0-2.59-2.6h0l-22.26,0a2.61,2.61,0,0,0-2.6,2.61l0,22.26A2.61,2.61,0,0,0,603.84,349.23Z" transform="translate(-2.99)"/><path class="cls-3" d="M603.78,311.28l22.26,0a2.63,2.63,0,0,0,2.6-2.6l0-22.26a2.59,2.59,0,0,0-2.59-2.6h0l-22.26,0a2.62,2.62,0,0,0-2.6,2.61l0,22.26A2.6,2.6,0,0,0,603.78,311.28Z" transform="translate(-2.99)"/><path class="cls-2" d="M603.73,273.33l22.26,0a2.59,2.59,0,0,0,2.59-2.59h0l0-22.26a2.59,2.59,0,0,0-2.6-2.6h0l-22.26,0a2.61,2.61,0,0,0-2.59,2.61l0,22.26A2.6,2.6,0,0,0,603.73,273.33Z" transform="translate(-2.99)"/><path class="cls-3" d="M557.19,425.2l22.26,0a2.6,2.6,0,0,0,2.6-2.6l0-22.27a2.58,2.58,0,0,0-2.59-2.59h0l-22.26,0a2.61,2.61,0,0,0-2.6,2.6l0,22.27A2.6,2.6,0,0,0,557.19,425.2Z" transform="translate(-2.99)"/><path class="cls-3" d="M557.14,387.25l22.26,0a2.6,2.6,0,0,0,2.59-2.6l0-22.27a2.6,2.6,0,0,0-2.6-2.59h0l-22.26,0a2.59,2.59,0,0,0-2.59,2.6l0,22.27A2.61,2.61,0,0,0,557.14,387.25Z" transform="translate(-2.99)"/><path class="cls-2" d="M557.08,349.3l22.26,0a2.59,2.59,0,0,0,2.59-2.6l0-22.26a2.59,2.59,0,0,0-2.59-2.6h0l-22.26,0a2.61,2.61,0,0,0-2.6,2.61l0,22.26A2.61,2.61,0,0,0,557.08,349.3Z" transform="translate(-2.99)"/><path class="cls-3" d="M557,311.35l22.26,0a2.6,2.6,0,0,0,2.6-2.6l0-22.26a2.59,2.59,0,0,0-2.59-2.6h0l-22.26,0a2.62,2.62,0,0,0-2.6,2.61l0,22.26A2.6,2.6,0,0,0,557,311.35Z" transform="translate(-2.99)"/><path class="cls-3" d="M557,273.4l22.26,0a2.59,2.59,0,0,0,2.59-2.59h0l0-22.26a2.59,2.59,0,0,0-2.6-2.6h0l-22.26,0a2.61,2.61,0,0,0-2.59,2.61l0,22.26A2.6,2.6,0,0,0,557,273.4Z" transform="translate(-2.99)"/><path class="cls-3" d="M510.43,425.27l22.26,0a2.6,2.6,0,0,0,2.6-2.6l0-22.27a2.58,2.58,0,0,0-2.59-2.59h0l-22.26,0a2.61,2.61,0,0,0-2.6,2.6l0,22.27A2.6,2.6,0,0,0,510.43,425.27Z" transform="translate(-2.99)"/><path class="cls-1" d="M510.38,387.32l22.26,0a2.6,2.6,0,0,0,2.59-2.6l0-22.27a2.6,2.6,0,0,0-2.6-2.59h0l-22.26,0a2.59,2.59,0,0,0-2.59,2.6l0,22.27A2.61,2.61,0,0,0,510.38,387.32Z" transform="translate(-2.99)"/><path class="cls-1" d="M510.32,349.37l22.26,0a2.59,2.59,0,0,0,2.59-2.6l0-22.26a2.59,2.59,0,0,0-2.59-2.6h0l-22.26,0a2.61,2.61,0,0,0-2.6,2.61l0,22.26A2.61,2.61,0,0,0,510.32,349.37Z" transform="translate(-2.99)"/><path class="cls-2" d="M510.26,311.42l22.26,0a2.6,2.6,0,0,0,2.6-2.6l0-22.26a2.59,2.59,0,0,0-2.59-2.6h0l-22.26,0a2.62,2.62,0,0,0-2.6,2.61l0,22.26A2.6,2.6,0,0,0,510.26,311.42Z" transform="translate(-2.99)"/><path class="cls-3" d="M510.21,273.47l22.26,0a2.59,2.59,0,0,0,2.59-2.59h0l0-22.26a2.59,2.59,0,0,0-2.6-2.6h0l-22.26,0a2.61,2.61,0,0,0-2.59,2.61l0,22.26A2.6,2.6,0,0,0,510.21,273.47Z" transform="translate(-2.99)"/><path class="cls-1" d="M463.67,425.34l22.27,0a2.61,2.61,0,0,0,2.59-2.6l0-22.27a2.59,2.59,0,0,0-2.59-2.59l-22.27,0a2.61,2.61,0,0,0-2.6,2.6l0,22.27A2.6,2.6,0,0,0,463.67,425.34Z" transform="translate(-2.99)"/><path class="cls-1" d="M463.62,387.39l22.27,0a2.6,2.6,0,0,0,2.58-2.6l0-22.27a2.59,2.59,0,0,0-2.6-2.59l-22.27,0a2.59,2.59,0,0,0-2.59,2.6l0,22.27A2.61,2.61,0,0,0,463.62,387.39Z" transform="translate(-2.99)"/><path class="cls-1" d="M463.56,349.44l22.27,0a2.59,2.59,0,0,0,2.58-2.6l0-22.26a2.59,2.59,0,0,0-2.59-2.6h0l-22.27,0a2.61,2.61,0,0,0-2.6,2.61l0,22.26A2.61,2.61,0,0,0,463.56,349.44Z" transform="translate(-2.99)"/><path class="cls-3" d="M463.5,311.49l22.27,0a2.61,2.61,0,0,0,2.59-2.6l0-22.26a2.58,2.58,0,0,0-2.58-2.6h0l-22.27,0a2.62,2.62,0,0,0-2.6,2.61l0,22.26A2.6,2.6,0,0,0,463.5,311.49Z" transform="translate(-2.99)"/><path class="cls-2" d="M463.45,273.54l22.27,0a2.58,2.58,0,0,0,2.58-2.6h0l0-22.26a2.59,2.59,0,0,0-2.59-2.6h0l-22.27,0a2.61,2.61,0,0,0-2.59,2.61l0,22.26A2.6,2.6,0,0,0,463.45,273.54Z" transform="translate(-2.99)"/><path class="cls-1" d="M416.91,425.41l22.27,0a2.61,2.61,0,0,0,2.59-2.6l0-22.27a2.58,2.58,0,0,0-2.59-2.59l-22.27,0a2.61,2.61,0,0,0-2.6,2.6l0,22.27A2.6,2.6,0,0,0,416.91,425.41Z" transform="translate(-2.99)"/><path class="cls-1" d="M416.86,387.46l22.27,0a2.6,2.6,0,0,0,2.58-2.6l0-22.27a2.59,2.59,0,0,0-2.6-2.59l-22.27,0a2.59,2.59,0,0,0-2.59,2.6l0,22.27A2.61,2.61,0,0,0,416.86,387.46Z" transform="translate(-2.99)"/><path class="cls-3" d="M416.8,349.51l22.27,0a2.59,2.59,0,0,0,2.58-2.6l0-22.26A2.59,2.59,0,0,0,439,322h0l-22.27,0a2.61,2.61,0,0,0-2.6,2.61l0,22.26A2.61,2.61,0,0,0,416.8,349.51Z" transform="translate(-2.99)"/><path class="cls-2" d="M416.74,311.56l22.27,0a2.61,2.61,0,0,0,2.59-2.6l0-22.26a2.58,2.58,0,0,0-2.58-2.6h0l-22.27,0a2.62,2.62,0,0,0-2.6,2.61l0,22.26A2.6,2.6,0,0,0,416.74,311.56Z" transform="translate(-2.99)"/><path class="cls-1" d="M416.69,273.61l22.27,0a2.58,2.58,0,0,0,2.58-2.6h0l0-22.26a2.59,2.59,0,0,0-2.59-2.6h0l-22.27,0a2.61,2.61,0,0,0-2.59,2.61l0,22.26A2.6,2.6,0,0,0,416.69,273.61Z" transform="translate(-2.99)"/><path class="cls-3" d="M370.15,425.48l22.27,0a2.61,2.61,0,0,0,2.59-2.61l0-22.27a2.58,2.58,0,0,0-2.59-2.58l-22.27,0a2.61,2.61,0,0,0-2.6,2.6l0,22.27A2.6,2.6,0,0,0,370.15,425.48Z" transform="translate(-2.99)"/><path class="cls-3" d="M370.1,387.53l22.27,0a2.6,2.6,0,0,0,2.58-2.61l0-22.27a2.59,2.59,0,0,0-2.6-2.58l-22.27,0a2.59,2.59,0,0,0-2.59,2.6l0,22.27A2.61,2.61,0,0,0,370.1,387.53Z" transform="translate(-2.99)"/><path class="cls-2" d="M370,349.58l22.27,0a2.59,2.59,0,0,0,2.58-2.61l0-22.26a2.59,2.59,0,0,0-2.59-2.59h0l-22.27,0a2.6,2.6,0,0,0-2.6,2.61l0,22.26A2.61,2.61,0,0,0,370,349.58Z" transform="translate(-2.99)"/><path class="cls-1" d="M370,311.63l22.27,0a2.61,2.61,0,0,0,2.59-2.61l0-22.26a2.58,2.58,0,0,0-2.58-2.59h0l-22.27,0a2.61,2.61,0,0,0-2.6,2.61l0,22.26A2.6,2.6,0,0,0,370,311.63Z" transform="translate(-2.99)"/><path class="cls-3" d="M369.93,273.68l22.27,0a2.58,2.58,0,0,0,2.58-2.6h0l0-22.26a2.59,2.59,0,0,0-2.59-2.59h0l-22.27,0a2.6,2.6,0,0,0-2.59,2.61l0,22.26A2.6,2.6,0,0,0,369.93,273.68Z" transform="translate(-2.99)"/><path class="cls-3" d="M323.39,425.55l22.27,0a2.61,2.61,0,0,0,2.59-2.61l0-22.27a2.58,2.58,0,0,0-2.59-2.58l-22.27,0a2.61,2.61,0,0,0-2.6,2.6l0,22.27A2.6,2.6,0,0,0,323.39,425.55Z" transform="translate(-2.99)"/><path class="cls-3" d="M323.34,387.6l22.27,0a2.6,2.6,0,0,0,2.58-2.61l0-22.27a2.59,2.59,0,0,0-2.6-2.58l-22.27,0a2.59,2.59,0,0,0-2.59,2.6l0,22.27A2.61,2.61,0,0,0,323.34,387.6Z" transform="translate(-2.99)"/><path class="cls-2" d="M323.28,349.65l22.27,0a2.59,2.59,0,0,0,2.58-2.61l0-22.26a2.59,2.59,0,0,0-2.59-2.59h0l-22.27,0a2.6,2.6,0,0,0-2.6,2.61l0,22.26A2.61,2.61,0,0,0,323.28,349.65Z" transform="translate(-2.99)"/><path class="cls-3" d="M323.22,311.7l22.27,0a2.61,2.61,0,0,0,2.59-2.61l0-22.26a2.59,2.59,0,0,0-2.59-2.59h0l-22.27,0a2.59,2.59,0,0,0-2.59,2.61l0,22.26A2.6,2.6,0,0,0,323.22,311.7Z" transform="translate(-2.99)"/><path class="cls-3" d="M323.17,273.75l22.27,0a2.59,2.59,0,0,0,2.58-2.6h0l0-22.26a2.59,2.59,0,0,0-2.59-2.59h0l-22.27,0a2.6,2.6,0,0,0-2.59,2.61l0,22.26A2.6,2.6,0,0,0,323.17,273.75Z" transform="translate(-2.99)"/><path class="cls-2" d="M276.63,425.62l22.27,0a2.61,2.61,0,0,0,2.59-2.61l0-22.27a2.58,2.58,0,0,0-2.59-2.58l-22.27,0a2.61,2.61,0,0,0-2.6,2.6L274,423A2.6,2.6,0,0,0,276.63,425.62Z" transform="translate(-2.99)"/><path class="cls-3" d="M276.58,387.67l22.27,0a2.6,2.6,0,0,0,2.58-2.61l0-22.27a2.59,2.59,0,0,0-2.6-2.58l-22.27,0a2.59,2.59,0,0,0-2.59,2.6l0,22.27A2.61,2.61,0,0,0,276.58,387.67Z" transform="translate(-2.99)"/><path class="cls-3" d="M276.52,349.72l22.27,0a2.59,2.59,0,0,0,2.58-2.61l0-22.26a2.59,2.59,0,0,0-2.59-2.59h0l-22.27,0a2.6,2.6,0,0,0-2.6,2.61l0,22.26A2.61,2.61,0,0,0,276.52,349.72Z" transform="translate(-2.99)"/><path class="cls-3" d="M276.46,311.77l22.27,0a2.61,2.61,0,0,0,2.59-2.61l0-22.26a2.59,2.59,0,0,0-2.59-2.59h0l-22.27,0a2.59,2.59,0,0,0-2.59,2.61l0,22.26A2.6,2.6,0,0,0,276.46,311.77Z" transform="translate(-2.99)"/><path class="cls-2" d="M276.41,273.82l22.27,0a2.59,2.59,0,0,0,2.58-2.6h0l0-22.26a2.59,2.59,0,0,0-2.59-2.59h0l-22.27,0a2.6,2.6,0,0,0-2.59,2.61l0,22.26A2.6,2.6,0,0,0,276.41,273.82Z" transform="translate(-2.99)"/><path class="cls-2" d="M229.87,425.69l22.27,0a2.61,2.61,0,0,0,2.59-2.61l0-22.27a2.6,2.6,0,0,0-2.6-2.58l-22.27,0a2.61,2.61,0,0,0-2.6,2.6l0,22.27A2.6,2.6,0,0,0,229.87,425.69Z" transform="translate(-2.99)"/><path class="cls-2" d="M229.82,387.74l22.27,0a2.6,2.6,0,0,0,2.58-2.61l0-22.27a2.59,2.59,0,0,0-2.6-2.58l-22.27,0a2.59,2.59,0,0,0-2.59,2.6l0,22.27A2.61,2.61,0,0,0,229.82,387.74Z" transform="translate(-2.99)"/><path class="cls-3" d="M229.76,349.79l22.27,0a2.61,2.61,0,0,0,2.59-2.61l0-22.26A2.59,2.59,0,0,0,252,322.3h0l-22.27,0a2.6,2.6,0,0,0-2.6,2.61l0,22.26A2.61,2.61,0,0,0,229.76,349.79Z" transform="translate(-2.99)"/><path class="cls-2" d="M229.7,311.84l22.27,0a2.61,2.61,0,0,0,2.59-2.61l0-22.26a2.59,2.59,0,0,0-2.59-2.59h0l-22.27,0a2.59,2.59,0,0,0-2.59,2.61l0,22.26A2.6,2.6,0,0,0,229.7,311.84Z" transform="translate(-2.99)"/><path class="cls-2" d="M229.65,273.89l22.27,0a2.59,2.59,0,0,0,2.58-2.6h0l0-22.26a2.59,2.59,0,0,0-2.59-2.59h0l-22.27,0A2.6,2.6,0,0,0,227,249l0,22.26A2.6,2.6,0,0,0,229.65,273.89Z" transform="translate(-2.99)"/><polygon class="cls-4" points="333.11 660.05 332.49 660.05 333.02 659.98 333.11 660.05"/><circle id="b6132315-04e2-4cdb-a713-107c9cd58b0b" class="cls-5" cx="143.78" cy="610.33" r="68.32"/><path id="f4304bdd-ba2d-4fff-b404-410205410c5d-289" class="cls-4" d="M214.56,571.68s23.66-30.43-14.47-40.48c0,0-27.57-35.89-65.6-17.52,0,0-18.34-3.32-32.12,15.62,0,0-13.43-8.08-19.25,6,0,0-16.08,28.65-10.5,58.06s8.53,33.1,8.53,33.1-6.91-60.8,35.85-56.22,94.76-13.26,92.2,21,1.23,43.49,1.23,43.49S252.52,592.75,214.56,571.68Z" transform="translate(-2.99)"/><path class="cls-1" d="M668,631.44q-5.74,6-11.8,11.74H560V631.44Z" transform="translate(-2.99)"/><path class="cls-3" d="M229,621.4l-4.92-.89c6.73-37.2-25.67-68.23-62.81-75a82.42,82.42,0,0,0-16.37-1.34c-6.18.11-12.63.42-19,1.18-25.31,3-50.12,13.2-56.27,47.19a78.47,78.47,0,0,0-1,20l-5,.38a84.32,84.32,0,0,1,1.11-21.28C70,562,85.88,543.79,109.14,535.43c12.23-4.39,26.49-6.07,42.33-5.28A97.82,97.82,0,0,1,171,533.07C213.16,543.87,236.12,581.84,229,621.4Z" transform="translate(-2.99)"/><path class="cls-3" d="M236.67,625.61l.65-14.68a15.91,15.91,0,0,0-15.54-16.59l-3.16-.14a6.6,6.6,0,0,0-6.87,6.28l-1.49,33.82a6.58,6.58,0,0,0,4.22,6.42,6.92,6.92,0,0,0,1.18.34,6.56,6.56,0,0,0,.88.09l3.53.16a15.78,15.78,0,0,0,11.71-4.41c.33-.33.66-.66,1-1A16.8,16.8,0,0,0,236.67,625.61Z" transform="translate(-2.99)"/><path class="cls-1" d="M216.52,594.45a6.41,6.41,0,0,0-2.63,1.47,6.57,6.57,0,0,0-2.14,4.56l-1.49,33.82a6.58,6.58,0,0,0,4.22,6.42Z" transform="translate(-2.99)"/><path class="cls-6" d="M236.67,625.61l.65-14.68a15.69,15.69,0,0,0-3.22-10.3l-1.48,33.65a5.71,5.71,0,0,0,.13,1.6A16.8,16.8,0,0,0,236.67,625.61Z" transform="translate(-2.99)"/><ellipse class="cls-6" cx="219.79" cy="626.17" rx="7" ry="2.5" transform="translate(-418.45 818.14) rotate(-87.47)"/><ellipse class="cls-6" cx="220.04" cy="607.92" rx="7" ry="2.5" transform="translate(-399.98 800.95) rotate(-87.47)"/><ellipse class="cls-6" cx="237.49" cy="618.19" rx="7" ry="2.5" transform="translate(-393.56 828.2) rotate(-87.47)"/><path class="cls-6" d="M161.23,545.54a82.42,82.42,0,0,0-16.37-1.34c-6.18.11-12.63.42-19,1.18-9.42-2.18-16-5.91-16.68-10,12.23-4.39,26.49-6.07,42.33-5.28A97.82,97.82,0,0,1,171,533.07a5.75,5.75,0,0,1,2,4.25C172.85,540.83,168.28,543.76,161.23,545.54Z" transform="translate(-2.99)"/><path class="cls-3" d="M81.1,629.92l-1.88-32.87a6.05,6.05,0,0,0-4-5.35,6.27,6.27,0,0,0-1-.25,6,6,0,0,0-1.4-.09l-3.06.18a14.9,14.9,0,0,0-14,15.72L56.61,622a15.89,15.89,0,0,0,3.72,9.44,14.61,14.61,0,0,0,1.17,1.19,14.78,14.78,0,0,0,10.86,3.84l3-.18a5.83,5.83,0,0,0,2.32-.61A6,6,0,0,0,81.1,629.92Z" transform="translate(-2.99)"/><ellipse class="cls-6" cx="65.87" cy="614.2" rx="2.5" ry="7" transform="translate(-38.01 4.77) rotate(-3.28)"/><ellipse class="cls-6" cx="55.5" cy="615.37" rx="2.5" ry="7" transform="translate(-38.09 4.18) rotate(-3.28)"/><path class="cls-1" d="M81.6,629.89,79.72,597a6.52,6.52,0,0,0-4.33-5.78L78,636.13A6.5,6.5,0,0,0,81.6,629.89Z" transform="translate(-2.99)"/><path class="cls-6" d="M58.62,601.33a6.49,6.49,0,0,0-.72-2.62,14.69,14.69,0,0,0-2.12,8.55L56.61,622a15.89,15.89,0,0,0,3.72,9.44Z" transform="translate(-2.99)"/><line class="cls-7" x1="100.17" y1="590.36" x2="119.79" y2="605.23"/><line class="cls-7" x1="100.17" y1="616.71" x2="119.79" y2="605.23"/><line class="cls-7" x1="179.79" y1="590.36" x2="160.17" y2="605.23"/><line class="cls-7" x1="179.79" y1="616.71" x2="160.17" y2="605.23"/><path class="cls-8" d="M107.49,644.33c2.57-5.46,8.23-8.5,13.56-7.53,2.73.49,3.33,2.43,9,7.53,6.3,5.64,9.46,8.45,12.8,8.29,1.7-.09,3.13-.81,12.05-9.8,7.17-7.22,8.22-8.74,10.55-9,2.83-.35,7.21,1.14,13.56,10.55" transform="translate(-2.99)"/></svg>