<svg xmlns="http://www.w3.org/2000/svg" viewBox="0 0 187.03 170.2"><defs><style>.cls-1{fill:#ffb6b6;}.cls-2{fill:#2f2e41;}.cls-3{fill:#f9a826;}.cls-4{fill:#fff;}.cls-5{fill:#3f3d56;}.cls-6{fill:none;stroke:#000;stroke-miterlimit:10;stroke-width:3px;}</style></defs><g id="Layer_2" data-name="Layer 2"><g id="Layer_1-2" data-name="Layer 1"><circle id="b6132315-04e2-4cdb-a713-107c9cd58b0b" class="cls-1" cx="93.78" cy="101.88" r="68.32"/><path id="f4304bdd-ba2d-4fff-b404-410205410c5d-289" class="cls-2" d="M161.57,63.23S185.23,32.8,147.1,22.75c0,0-27.57-35.89-65.6-17.52,0,0-18.34-3.32-32.12,15.62,0,0-13.43-8.08-19.25,6,0,0-16.08,28.65-10.5,58.06S28.16,118,28.16,118,21.25,57.21,64,61.79s94.76-13.26,92.2,21,1.23,43.49,1.23,43.49S199.53,84.3,161.57,63.23Z"/><path class="cls-3" d="M176,113l-4.92-.89c6.73-37.2-25.67-68.23-62.81-75a82.42,82.42,0,0,0-16.37-1.34,189.75,189.75,0,0,0-19,1.18c-25.31,3-50.12,13.2-56.27,47.19a78.4,78.4,0,0,0-1,20l-5,.38a84.32,84.32,0,0,1,1.11-21.28C17,53.55,32.89,35.34,56.15,27c12.23-4.39,26.49-6.07,42.33-5.28A98.34,98.34,0,0,1,118,24.62C160.17,35.42,183.13,73.39,176,113Z"/><path class="cls-3" d="M183.68,117.16l.65-14.68A15.91,15.91,0,0,0,169.12,85.9h-.33l-3.16-.14A6.6,6.6,0,0,0,158.76,92l-1.49,33.82a6.57,6.57,0,0,0,4.22,6.42,6.12,6.12,0,0,0,1.18.34,6.56,6.56,0,0,0,.88.09l3.53.16a15.78,15.78,0,0,0,11.71-4.41l1-1A16.72,16.72,0,0,0,183.68,117.16Z"/><path class="cls-4" d="M163.53,86a6.52,6.52,0,0,0-2.63,1.47A6.59,6.59,0,0,0,158.76,92l-1.49,33.82a6.57,6.57,0,0,0,4.22,6.42Z"/><path class="cls-5" d="M183.68,117.16l.65-14.68a15.69,15.69,0,0,0-3.22-10.3l-1.48,33.65a5.71,5.71,0,0,0,.13,1.6A16.8,16.8,0,0,0,183.68,117.16Z"/><ellipse class="cls-5" cx="166.81" cy="117.76" rx="7" ry="2.5" transform="translate(41.8 279.21) rotate(-87.47)"/><ellipse class="cls-5" cx="167.06" cy="99.51" rx="7" ry="2.5" transform="translate(60.27 262.02) rotate(-87.47)"/><ellipse class="cls-5" cx="184.51" cy="109.78" rx="7" ry="2.5" transform="translate(66.69 289.27) rotate(-87.47)"/><path class="cls-5" d="M108.24,37.09a82.42,82.42,0,0,0-16.37-1.34,189.75,189.75,0,0,0-19,1.18c-9.42-2.18-16-5.91-16.68-10,12.23-4.39,26.49-6.07,42.33-5.28a98,98,0,0,1,19.49,3,5.77,5.77,0,0,1,2,4.25C119.86,32.38,115.29,35.31,108.24,37.09Z"/><path class="cls-3" d="M28.11,121.47,26.23,88.6a6.05,6.05,0,0,0-4-5.35,7,7,0,0,0-1-.25,6.55,6.55,0,0,0-1.4-.09l-3.06.18a14.91,14.91,0,0,0-14,15.72l.85,14.74A15.89,15.89,0,0,0,7.34,123a14.61,14.61,0,0,0,1.17,1.19A14.77,14.77,0,0,0,19.37,128l3-.18a5.67,5.67,0,0,0,2.32-.61A6,6,0,0,0,28.11,121.47Z"/><ellipse class="cls-5" cx="12.89" cy="105.75" rx="2.5" ry="7" transform="translate(-6.03 0.91) rotate(-3.28)"/><ellipse class="cls-5" cx="2.53" cy="106.92" rx="2.5" ry="7" transform="translate(-6.11 0.32) rotate(-3.28)"/><path class="cls-4" d="M28.61,121.44,26.73,88.55a6.52,6.52,0,0,0-4.33-5.78L25,127.68A6.49,6.49,0,0,0,28.61,121.44Z"/><path class="cls-5" d="M5.63,92.88a6.54,6.54,0,0,0-.72-2.62,14.77,14.77,0,0,0-2.12,8.55l.83,14.74A15.89,15.89,0,0,0,7.34,123Z"/><line class="cls-6" x1="50.17" y1="81.91" x2="69.79" y2="96.78"/><line class="cls-6" x1="50.17" y1="108.26" x2="69.79" y2="96.78"/><path class="cls-6" d="M129.79,81.91,110.17,96.78m19.62,11.48L110.17,96.78"/><path class="cls-6" d="M54.5,135.88c2.57-5.46,8.23-8.5,13.56-7.53,2.73.49,3.33,2.43,9,7.53,6.3,5.64,9.46,8.45,12.8,8.29,1.7-.09,3.13-.81,12-9.8,7.17-7.22,8.22-8.74,10.55-9,2.83-.35,7.21,1.14,13.56,10.55"/></g></g></svg>